<?xml version="1.0" encoding="UTF-8" standalone="no"?>
<!-- Created with Inkscape (http://www.inkscape.org/) -->

<svg
   xmlns:dc="http://purl.org/dc/elements/1.1/"
   xmlns:cc="http://creativecommons.org/ns#"
   xmlns:rdf="http://www.w3.org/1999/02/22-rdf-syntax-ns#"
   xmlns:svg="http://www.w3.org/2000/svg"
   xmlns="http://www.w3.org/2000/svg"
   xmlns:sodipodi="http://sodipodi.sourceforge.net/DTD/sodipodi-0.dtd"
   xmlns:inkscape="http://www.inkscape.org/namespaces/inkscape"
   width="84.958221mm"
   height="75.701332mm"
   viewBox="0 0 301.03307 268.23307"
   id="svg2"
   version="1.1"
   inkscape:version="0.91 r13725"
   sodipodi:docname="tinkerlamp-light.svg">
  <defs
     id="defs4" />
  <sodipodi:namedview
     id="base"
     pagecolor="#ffffff"
     bordercolor="#666666"
     borderopacity="1.0"
     inkscape:pageopacity="0.0"
     inkscape:pageshadow="2"
     inkscape:zoom="1.1716797"
     inkscape:cx="179.43219"
     inkscape:cy="119.84082"
     inkscape:document-units="px"
     inkscape:current-layer="layer1"
     showgrid="false"
     fit-margin-top="5"
     fit-margin-left="5"
     fit-margin-right="5"
     fit-margin-bottom="5"
     inkscape:window-width="1680"
     inkscape:window-height="1005"
     inkscape:window-x="0"
     inkscape:window-y="1"
     inkscape:window-maximized="1" />
  <metadata
     id="metadata7">
    <rdf:RDF>
      <cc:Work
         rdf:about="">
        <dc:format>image/svg+xml</dc:format>
        <dc:type
           rdf:resource="http://purl.org/dc/dcmitype/StillImage" />
        <dc:title></dc:title>
      </cc:Work>
    </rdf:RDF>
  </metadata>
  <g
     inkscape:label="Layer 1"
     inkscape:groupmode="layer"
     id="layer1"
     transform="translate(-48.343275,-383.96995)">
    <polygon
       points="487,250 509,250 509,203 442,203 442,223 487,223 "
       class="st0"
       id="XMLID_2_"
       style="fill:#4caf50"
       transform="translate(-247.14019,198.68649)" />
    <polygon
       points="384,250 384,223 410,223 410,349 509,349 509,319 485,319 485,329 434,329 434,247.6 434,223.1 434,203 428.6,203 409.6,203 362,203 362,250 "
       class="st1"
       id="XMLID_80_"
       style="fill:#dcdcdc;fill-opacity:1"
       transform="translate(-247.14019,198.68649)" />
    <path
       d="m 76.55981,582.08649 -10.5,0 0,-5.7 c 9.6,0 17.7,0 27.3,0 l 0,5.7 -10.5,0 0,27.5 -6.2,0 0,-27.5 z"
       class="st1"
       id="XMLID_74_"
       inkscape:connector-curvature="0"
       style="fill:#dcdcdc;fill-opacity:1" />
    <path
       d="m 104.35981,579.58649 c 0,4.5 -6.8,4.5 -6.8,0 0,-4.5 6.8,-4.5 6.8,0 z m -6.3,6.5 0,23.4 5.8,0 0,-23.4 -5.8,0 z"
       class="st1"
       id="XMLID_76_"
       inkscape:connector-curvature="0"
       style="fill:#dcdcdc;fill-opacity:1" />
    <path
       d="m 128.15981,609.48649 0,-12.2 c 0,-3.5 -1.9,-6.2 -5.6,-6.2 -3.5,0 -6,3 -6,6.5 l 0,11.9 -5.7,0 0,-23.4 5.2,0 0.4,3.2 c 2.4,-2.3 4.7,-3.5 7.7,-3.5 5.5,0 9.9,4.1 9.9,11.5 l 0,12.3 -5.9,0 z"
       class="st1"
       id="XMLID_85_"
       inkscape:connector-curvature="0"
       style="fill:#dcdcdc;fill-opacity:1" />
    <path
       d="m 146.35981,576.48649 0,19.1 7.9,-9.4 6.9,0 0,0.3 -9.5,10.7 10.8,11.9 0,0.4 -7,0 -9.1,-10.6 0,10.6 -5.8,0 0,-33.1 5.8,0 z"
       class="st1"
       id="XMLID_90_"
       inkscape:connector-curvature="0"
       style="fill:#dcdcdc;fill-opacity:1" />
    <path
       d="m 171.95981,599.88649 c 0.4,2.9 2.9,5 7,5 2.1,0 4.9,-0.8 6.2,-2.2 l 3.7,3.6 c -2.5,2.6 -6.5,3.8 -10,3.8 -8,0 -12.8,-5 -12.8,-12.4 0,-7.1 4.8,-12.2 12.4,-12.2 7.8,0 12.7,4.8 11.8,14.4 l -18.3,0 z m 12.7,-4.7 c -0.4,-3 -2.7,-4.5 -6.1,-4.5 -3.1,0 -5.7,1.5 -6.5,4.5 l 12.6,0 z"
       class="st1"
       id="XMLID_93_"
       inkscape:connector-curvature="0"
       style="fill:#dcdcdc;fill-opacity:1" />
    <path
       d="m 201.85981,586.18649 0.4,2.7 c 1.8,-2.9 4.2,-3.3 6.6,-3.3 2.4,0 4.7,0.9 6,2.2 l -2.6,5 c -1.2,-1 -2.3,-1.5 -4.2,-1.5 -3,0 -5.8,1.6 -5.8,5.9 l 0,12.3 -5.8,0 0,-23.3 5.4,0 z"
       class="st1"
       id="XMLID_97_"
       inkscape:connector-curvature="0"
       style="fill:#dcdcdc;fill-opacity:1" />
    <path
       d="m 224.65981,576.48649 0,33.1 -5.7,0 0,-33.1 5.7,0 z"
       class="st1"
       id="XMLID_99_"
       inkscape:connector-curvature="0"
       style="fill:#dcdcdc;fill-opacity:1" />
    <path
       d="m 250.15981,586.18649 5.5,0 0,23.3 -5.4,0 -0.3,-3.4 c -1.3,2.7 -5,4.1 -7.6,4.1 -6.9,0 -12,-4.2 -12,-12.4 0,-8 5.3,-12.3 12.2,-12.2 3.1,0 6.1,1.5 7.4,3.8 l 0.2,-3.2 z m -14,11.6 c 0,4.4 3.1,7.1 6.9,7.1 9.1,0 9.1,-14.2 0,-14.2 -3.8,0.1 -6.9,2.7 -6.9,7.1 z"
       class="st1"
       id="XMLID_101_"
       inkscape:connector-curvature="0"
       style="fill:#dcdcdc;fill-opacity:1" />
    <path
       d="m 277.95981,609.48649 0,-12.5 c 0,-3.1 -1.6,-5.9 -4.8,-5.9 -3.1,0 -5,2.8 -5,5.9 l 0,12.5 -5.8,0 0,-23.4 5.3,0 0.4,2.8 c 1.2,-2.4 3.9,-3.2 6.2,-3.2 2.8,0 5.6,1.1 6.9,4.4 2.1,-3.3 4.8,-4.3 7.8,-4.3 6.6,0 9.9,4.1 9.9,11.1 l 0,12.6 -5.8,0 0,-12.6 c 0,-3.1 -1.3,-5.7 -4.4,-5.7 -3.1,0 -5.1,2.7 -5.1,5.8 l 0,12.5 -5.6,0 z"
       class="st1"
       id="XMLID_104_"
       inkscape:connector-curvature="0"
       style="fill:#dcdcdc;fill-opacity:1" />
    <path
       d="m 306.25981,619.28649 0,-33.1 5.4,0 0.4,3.2 c 1.8,-2.6 4.9,-3.7 7.6,-3.7 7.2,0 12,5.3 12,12.2 0,6.8 -4.3,12.2 -11.8,12.2 -2.5,0 -6.1,-0.8 -7.8,-3.3 l 0,12.5 -5.8,0 z m 19.6,-21.4 c 0,-3.6 -2.5,-6.6 -6.6,-6.6 -4.2,0 -6.6,3 -6.6,6.6 0,3.6 2.7,6.6 6.6,6.6 3.9,0 6.6,-3 6.6,-6.6 z"
       class="st1"
       id="XMLID_106_"
       inkscape:connector-curvature="0"
       style="fill:#dcdcdc;fill-opacity:1" />
    <g
       id="XMLID_94_"
       transform="translate(-247.14019,198.68649)">
      <path
         style="fill:#4caf50"
         inkscape:connector-curvature="0"
         id="XMLID_6_"
         class="st0"
         d="m 329.3,434.3 c 0,0.6 -0.1,1 -0.3,1.2 -0.2,0.2 -0.6,0.3 -1.2,0.3 l -3.8,0 c -0.6,0 -1,-0.1 -1.2,-0.3 -0.2,-0.2 -0.3,-0.7 -0.3,-1.3 l 1.3,-0.3 0,0.7 4.4,0 0,-1.4 -3.9,0 c -0.6,0 -1,-0.1 -1.2,-0.3 -0.2,-0.2 -0.3,-0.6 -0.3,-1.2 l 0,-0.7 c 0,-0.6 0.1,-1 0.3,-1.2 0.2,-0.2 0.6,-0.3 1.2,-0.3 l 3.5,0 c 0.6,0 1,0.1 1.2,0.3 0.2,0.2 0.3,0.6 0.3,1.2 l -1.3,0.3 0,-0.7 -4.1,0 0,1.3 3.9,0 c 0.6,0 1,0.1 1.2,0.3 0.2,0.2 0.3,0.6 0.3,1.2 l 0,0.9 z" />
      <path
         style="fill:#4caf50"
         inkscape:connector-curvature="0"
         id="XMLID_8_"
         class="st0"
         d="m 333.8,435.8 -1.4,0 0,-6.2 1.4,0 0,6.2 z" />
      <path
         style="fill:#4caf50"
         inkscape:connector-curvature="0"
         id="XMLID_10_"
         class="st0"
         d="m 345,435.8 -1.3,0 0,-3.9 c 0,-0.1 0,-0.3 0,-0.6 -0.1,0.2 -0.2,0.4 -0.4,0.6 l -2.3,3.1 -0.3,0 -2.3,-3.1 c -0.2,-0.2 -0.3,-0.4 -0.4,-0.6 0,0.2 0,0.5 0,0.6 l 0,3.9 -1.2,0 0,-6.2 1.2,0 2.9,3.7 2.9,-3.7 1.2,0 0,6.2 z" />
      <path
         style="fill:#4caf50"
         inkscape:connector-curvature="0"
         id="XMLID_12_"
         class="st0"
         d="m 354.7,432.1 c 0,0.8 -0.5,1.2 -1.4,1.2 l -3.9,0 0,2.4 -1.4,0 0,-6.2 5.3,0 c 0.9,0 1.4,0.4 1.4,1.2 l 0,1.4 z m -1.4,-0.3 0,-0.7 c 0,-0.2 -0.1,-0.3 -0.2,-0.4 -0.1,-0.1 -0.2,-0.1 -0.5,-0.1 l -3.2,0 0,1.6 3.2,0 c 0.2,0 0.4,0 0.5,-0.1 0.2,0 0.2,-0.1 0.2,-0.3 z" />
      <path
         style="fill:#4caf50"
         inkscape:connector-curvature="0"
         id="XMLID_15_"
         class="st0"
         d="m 363,435.8 -6,0 0,-6.2 1.4,0 0,5 4.6,0 0,1.2 z" />
      <path
         style="fill:#4caf50"
         inkscape:connector-curvature="0"
         id="XMLID_17_"
         class="st0"
         d="m 371.5,435.8 -6.4,0 0,-6.2 6.3,0 0,1.1 -4.9,0 0,1.4 2.9,0 0,1.1 -2.9,0 0,1.5 5,0 0,1.1 z" />
      <path
         style="fill:#4caf50"
         inkscape:connector-curvature="0"
         id="XMLID_19_"
         class="st0"
         d="m 375.5,435.3 c 0,0.2 0,0.3 -0.1,0.4 -0.1,0.1 -0.2,0.1 -0.4,0.1 l -1,0 c -0.2,0 -0.3,-0.1 -0.3,-0.4 l 0,-1 c 0,-0.2 0,-0.3 0.1,-0.4 0.1,-0.1 0.2,-0.1 0.4,-0.1 l 1.1,0 c 0.2,0 0.3,0.1 0.3,0.4 l 0,1 z" />
      <path
         style="fill:#4caf50"
         inkscape:connector-curvature="0"
         id="XMLID_21_"
         class="st0"
         d="m 389.5,434.3 c 0,0.6 -0.1,1 -0.3,1.2 -0.2,0.2 -0.6,0.3 -1.2,0.3 l -3.7,0 c -0.6,0 -1,-0.1 -1.2,-0.3 -0.2,-0.2 -0.3,-0.6 -0.3,-1.2 l 0,-3.3 c 0,-0.6 0.1,-1 0.3,-1.2 0.2,-0.2 0.6,-0.3 1.2,-0.3 l 3.7,0 c 0.7,0 1.2,0.2 1.4,0.5 0.1,0.2 0.2,0.7 0.2,1.5 l -1.4,0.2 0,-1.2 -3.9,0 0,3.9 3.9,0 0,-1.3 1.4,0.3 0,0.9 z" />
      <path
         style="fill:#4caf50"
         inkscape:connector-curvature="0"
         id="XMLID_23_"
         class="st0"
         d="m 399.9,434.3 c 0,0.6 -0.1,1 -0.3,1.2 -0.2,0.2 -0.6,0.3 -1.2,0.3 l -4.6,0 c -0.6,0 -1,-0.1 -1.2,-0.3 -0.2,-0.2 -0.3,-0.6 -0.3,-1.2 l 0,-3.3 c 0,-0.6 0.1,-1 0.3,-1.2 0.2,-0.2 0.6,-0.3 1.2,-0.3 l 4.6,0 c 0.6,0 1,0.1 1.2,0.3 0.2,0.2 0.3,0.6 0.3,1.2 l 0,3.3 z m -1.4,0.3 0,-3.9 -4.8,0 0,3.9 4.8,0 z" />
      <path
         style="fill:#4caf50"
         inkscape:connector-curvature="0"
         id="XMLID_26_"
         class="st0"
         d="m 410.2,435.8 -1,0 -4.5,-3.8 c -0.2,-0.2 -0.4,-0.3 -0.5,-0.5 0,0.4 0.1,0.7 0.1,0.9 l 0,3.4 -1.3,0 0,-6.2 1,0 4.4,3.6 c 0.3,0.3 0.5,0.5 0.7,0.7 0,-0.6 -0.1,-0.9 -0.1,-1.1 l 0,-3.3 1.3,0 0,6.3 z" />
      <path
         style="fill:#4caf50"
         inkscape:connector-curvature="0"
         id="XMLID_28_"
         class="st0"
         d="m 420,434.3 c 0,0.6 -0.1,1 -0.3,1.2 -0.2,0.2 -0.6,0.3 -1.2,0.3 l -3.7,0 c -0.6,0 -1,-0.1 -1.2,-0.3 -0.2,-0.2 -0.3,-0.6 -0.3,-1.2 l 0,-3.3 c 0,-0.6 0.1,-1 0.3,-1.2 0.2,-0.2 0.6,-0.3 1.2,-0.3 l 3.7,0 c 0.7,0 1.2,0.2 1.4,0.5 0.1,0.2 0.2,0.7 0.2,1.5 l -1.4,0.2 0,-1.2 -3.9,0 0,3.9 3.9,0 0,-1.3 1.4,0.3 0,0.9 z" />
      <path
         style="fill:#4caf50"
         inkscape:connector-curvature="0"
         id="XMLID_30_"
         class="st0"
         d="m 430.4,435.8 -2.1,0 -2.5,-2.3 -1.4,0 0,2.3 -1.4,0 0,-6.2 5.3,0 c 0.9,0 1.4,0.4 1.4,1.2 l 0,1.5 c 0,0.6 -0.2,1 -0.7,1.1 -0.2,0.1 -0.7,0.1 -1.5,0.1 l 2.9,2.3 z m -2.1,-3.9 0,-0.7 c 0,-0.2 -0.1,-0.3 -0.2,-0.4 -0.1,-0.1 -0.2,-0.1 -0.5,-0.1 l -3.2,0 0,1.7 3.2,0 c 0.2,0 0.4,0 0.5,-0.1 0.2,-0.1 0.2,-0.2 0.2,-0.4 z" />
      <path
         style="fill:#4caf50"
         inkscape:connector-curvature="0"
         id="XMLID_33_"
         class="st0"
         d="m 439,435.8 -6.4,0 0,-6.2 6.3,0 0,1.1 -4.9,0 0,1.4 2.9,0 0,1.1 -2.9,0 0,1.5 5,0 0,1.1 z" />
      <path
         style="fill:#4caf50"
         inkscape:connector-curvature="0"
         id="XMLID_35_"
         class="st0"
         d="m 447.4,430.7 -2.9,0 0,5.1 -1.4,0 0,-5.1 -2.8,0 0,-1.1 7.1,0 0,1.1 z" />
      <path
         style="fill:#4caf50"
         inkscape:connector-curvature="0"
         id="XMLID_37_"
         class="st0"
         d="m 455.6,435.8 -6.4,0 0,-6.2 6.3,0 0,1.1 -4.9,0 0,1.4 2.9,0 0,1.1 -2.9,0 0,1.5 5,0 0,1.1 z" />
      <path
         style="fill:#4caf50"
         inkscape:connector-curvature="0"
         id="XMLID_39_"
         class="st0"
         d="m 459.6,435.3 c 0,0.2 0,0.3 -0.1,0.4 -0.1,0.1 -0.2,0.1 -0.4,0.1 l -1.1,0 c -0.2,0 -0.3,-0.1 -0.3,-0.4 l 0,-1 c 0,-0.2 0,-0.3 0.1,-0.4 0.1,-0.1 0.2,-0.1 0.4,-0.1 l 1.1,0 c 0.2,0 0.3,0.1 0.3,0.4 l 0,1 z" />
      <path
         style="fill:#4caf50"
         inkscape:connector-curvature="0"
         id="XMLID_41_"
         class="st0"
         d="m 473.5,434.3 c 0,0.6 -0.1,1 -0.3,1.2 -0.2,0.2 -0.6,0.3 -1.2,0.3 l -3.7,0 c -0.6,0 -1,-0.1 -1.2,-0.3 -0.2,-0.2 -0.3,-0.6 -0.3,-1.2 l 0,-3.3 c 0,-0.6 0.1,-1 0.3,-1.2 0.2,-0.2 0.6,-0.3 1.2,-0.3 l 3.7,0 c 0.7,0 1.2,0.2 1.4,0.5 0.1,0.2 0.2,0.7 0.2,1.5 l -1.4,0.2 0,-1.2 -3.9,0 0,3.9 3.9,0 0,-1.3 1.4,0.3 0,0.9 z" />
      <path
         style="fill:#4caf50"
         inkscape:connector-curvature="0"
         id="XMLID_43_"
         class="st0"
         d="m 484,434.3 c 0,0.6 -0.1,1 -0.3,1.2 -0.2,0.2 -0.6,0.3 -1.2,0.3 l -4.6,0 c -0.6,0 -1,-0.1 -1.2,-0.3 -0.2,-0.2 -0.3,-0.6 -0.3,-1.2 l 0,-3.3 c 0,-0.6 0.1,-1 0.3,-1.2 0.2,-0.2 0.6,-0.3 1.2,-0.3 l 4.6,0 c 0.6,0 1,0.1 1.2,0.3 0.2,0.2 0.3,0.6 0.3,1.2 l 0,3.3 z m -1.5,0.3 0,-3.9 -4.8,0 0,3.9 4.8,0 z" />
      <path
         style="fill:#4caf50"
         inkscape:connector-curvature="0"
         id="XMLID_46_"
         class="st0"
         d="m 493.1,435.8 -6.1,0 0,-6.2 1.4,0 0,5 4.6,0 0,1.2 z" />
      <path
         style="fill:#4caf50"
         inkscape:connector-curvature="0"
         id="XMLID_48_"
         class="st0"
         d="m 501.3,435.8 -6.1,0 0,-6.2 1.4,0 0,5 4.6,0 0,1.2 z" />
      <path
         style="fill:#4caf50"
         inkscape:connector-curvature="0"
         id="XMLID_50_"
         class="st0"
         d="m 510.4,435.8 -1.6,0 -0.7,-1.4 -3.9,0 -0.7,1.4 -1.5,0 3.5,-6.2 1.4,0 3.5,6.2 z m -2.9,-2.5 -1.3,-2.5 -1.4,2.5 2.7,0 z" />
      <path
         style="fill:#4caf50"
         inkscape:connector-curvature="0"
         id="XMLID_53_"
         class="st0"
         d="m 519.2,434.5 c 0,0.8 -0.6,1.2 -1.8,1.2 l -4.9,0 0,-6.2 5.3,0 c 0.9,0 1.4,0.4 1.4,1.2 l 0,0.8 c 0,0.6 -0.4,1 -1.1,1 0.7,0.1 1.1,0.5 1.1,1.2 l 0,0.8 z m -1.4,-2.9 0,-0.6 c 0,-0.3 -0.2,-0.4 -0.7,-0.4 l -3.3,0 0,1.5 3.3,0 c 0.5,-0.1 0.7,-0.2 0.7,-0.5 z m 0,2.5 0,-0.5 c 0,-0.2 -0.1,-0.4 -0.2,-0.4 -0.1,-0.1 -0.3,-0.1 -0.5,-0.1 l -3.3,0 0,1.6 3.3,0 c 0.2,0 0.4,0 0.5,-0.1 0.2,-0.1 0.2,-0.3 0.2,-0.5 z" />
      <path
         style="fill:#4caf50"
         inkscape:connector-curvature="0"
         id="XMLID_57_"
         class="st0"
         d="m 529.5,434.3 c 0,0.6 -0.1,1 -0.3,1.2 -0.2,0.2 -0.6,0.3 -1.2,0.3 l -4.6,0 c -0.6,0 -1,-0.1 -1.2,-0.3 -0.2,-0.2 -0.3,-0.6 -0.3,-1.2 l 0,-3.3 c 0,-0.6 0.1,-1 0.3,-1.2 0.2,-0.2 0.6,-0.3 1.2,-0.3 l 4.6,0 c 0.6,0 1,0.1 1.2,0.3 0.2,0.2 0.3,0.6 0.3,1.2 l 0,3.3 z m -1.5,0.3 0,-3.9 -4.8,0 0,3.9 4.8,0 z" />
      <path
         style="fill:#4caf50"
         inkscape:connector-curvature="0"
         id="XMLID_60_"
         class="st0"
         d="m 539.8,435.8 -2.1,0 -2.5,-2.3 -1.4,0 0,2.3 -1.4,0 0,-6.2 5.3,0 c 0.9,0 1.4,0.4 1.4,1.2 l 0,1.5 c 0,0.6 -0.2,1 -0.7,1.1 -0.2,0.1 -0.7,0.1 -1.5,0.1 l 2.9,2.3 z m -2,-3.9 0,-0.7 c 0,-0.2 -0.1,-0.3 -0.2,-0.4 -0.1,-0.1 -0.2,-0.1 -0.5,-0.1 l -3.2,0 0,1.7 3.2,0 c 0.2,0 0.4,0 0.5,-0.1 0.1,-0.1 0.2,-0.2 0.2,-0.4 z" />
      <path
         style="fill:#4caf50"
         inkscape:connector-curvature="0"
         id="XMLID_63_"
         class="st0"
         d="m 548.9,435.8 -1.6,0 -0.7,-1.4 -3.9,0 -0.7,1.4 -1.4,0 3.5,-6.2 1.4,0 3.4,6.2 z m -2.9,-2.5 -1.3,-2.5 -1.4,2.5 2.7,0 z" />
      <path
         style="fill:#4caf50"
         inkscape:connector-curvature="0"
         id="XMLID_66_"
         class="st0"
         d="m 555.8,430.7 -2.8,0 0,5.1 -1.4,0 0,-5.1 -2.8,0 0,-1.1 7.1,0 0,1.1 z" />
      <path
         style="fill:#4caf50"
         inkscape:connector-curvature="0"
         id="XMLID_68_"
         class="st0"
         d="m 559,435.8 -1.4,0 0,-6.2 1.4,0 0,6.2 z" />
      <path
         style="fill:#4caf50"
         inkscape:connector-curvature="0"
         id="XMLID_70_"
         class="st0"
         d="m 568.7,429.6 -3.4,6.2 -1,0 -3.6,-6.2 1.6,0 2.5,4.5 2.4,-4.5 1.5,0 z" />
      <path
         style="fill:#4caf50"
         inkscape:connector-curvature="0"
         id="XMLID_72_"
         class="st0"
         d="m 576.8,435.8 -6.4,0 0,-6.2 6.3,0 0,1.1 -4.9,0 0,1.4 2.9,0 0,1.1 -2.9,0 0,1.5 5,0 0,1.1 z" />
    </g>
  </g>
  <style
     id="style4228"
     type="text/css">
	.st0{fill:#4CAF50;}
	.st1{fill:#28323B;}
</style>
</svg>
